<?xml version="1.0" encoding="UTF-8"?>
<svg width="57px" height="57px" viewBox="0 0 57 57" version="1.1" xmlns="http://www.w3.org/2000/svg" xmlns:xlink="http://www.w3.org/1999/xlink">
    <!-- Generator: Sketch 55.1 (78136) - https://sketchapp.com -->
    <title>Combined Shape</title>
    <desc>Created with Sketch.</desc>
    <g id="Page-1" stroke="none" stroke-width="1" fill="none" fill-rule="evenodd">
        <path d="M46.9324558,46.9498961 C51.857426,42.0257767 54.5692648,35.4782633 54.5682442,28.5133737 C54.5682442,14.1330394 42.8725245,2.43374687 28.496614,2.43374687 C14.1184916,2.43374687 2.42107075,14.1330394 2.42107075,28.5133737 C2.42107075,42.8892842 14.1184916,54.5848334 28.496614,54.5848334 C35.4609931,54.5848334 42.0083364,51.8735051 46.9324558,46.9498961 Z M48.6461991,8.36208716 C54.0285304,13.7442484 56.9921901,20.900726 56.9913396,28.5133737 C56.9913396,44.2208722 44.2087066,56.9999319 28.496614,56.9999319 C12.7835006,56.9999319 1.70149254e-05,44.2208722 1.70149254e-05,28.5133737 C1.70149254e-05,12.8000901 12.7835006,0.0166065672 28.496614,0.0166065672 C36.1082409,0.0166065672 43.2640379,2.98043642 48.6461991,8.36208716 Z M36.4362247,27.9682344 C36.7886898,28.2099412 37.0017915,28.5897419 37,29.0016456 C37,29.4069248 36.7922956,29.7882542 36.4362247,30.0352266 L25.1595027,37.7513291 C24.9209802,37.9166001 24.6390081,38 24.3606418,38 C24.1473598,38 23.936061,37.9539687 23.7426108,37.862076 C23.2853976,37.6441492 23,37.2031999 23,36.7196165 L23,21.2787488 C23,20.8002611 23.2853976,20.3576133 23.7426108,20.1396865 C24.1962181,19.9200611 24.745559,19.9625254 25.1595027,20.2451678 L36.4362247,27.9682344 Z" id="Combined-Shape" fill="#CBCBCB" fill-rule="nonzero"></path>
    </g>
</svg>